<?xml version="1.0" encoding="utf-8"?>
<!-- Generator: Adobe Illustrator 22.1.0, SVG Export Plug-In . SVG Version: 6.00 Build 0)  -->
<svg version="1.1" id="Calque_1" xmlns="http://www.w3.org/2000/svg" xmlns:xlink="http://www.w3.org/1999/xlink" x="0px" y="0px"
	 viewBox="0 0 67.5 42" style="enable-background:new 0 0 67.5 42;" xml:space="preserve">
<style type="text/css">
	.st0{fill:#FFCC33;}
	.st1{fill:#FFFFFF;}
</style>
<path class="st0" d="M12.5,6h34.9C47.7,6,48,6.2,48,6.5v34.9c0,0.3-0.3,0.6-0.6,0.6H12.5c-0.3,0-0.6-0.3-0.6-0.6V6.5
	C11.9,6.2,12.2,6,12.5,6z"/>
<g>
	<path class="st1" d="M2,27.6c-0.6,0-1-0.1-1.3-0.5s-0.5-0.9-0.6-1.7c-0.1-0.7,0.1-1.3,0.4-1.7S1.1,23,1.7,23s1,0.1,1.4,0.6l0,0
		C3.1,23.2,3,23,3,22.8l-0.1-1.6l0.9-0.1l0.4,6.2l-0.7,0.1l-0.2-0.6l0,0C3,27.3,2.6,27.5,2,27.6z M2.2,26.8c0.4,0,0.7-0.2,0.8-0.4
		c0.2-0.2,0.2-0.6,0.2-1.1v-0.1c0-0.6-0.2-0.9-0.4-1.2S2.4,23.7,2,23.7c-0.3,0-0.6,0.2-0.7,0.5c-0.2,0.3-0.2,0.7-0.2,1.2
		s0.1,0.9,0.3,1.1C1.6,26.7,1.9,26.8,2.2,26.8z"/>
	<path class="st1" d="M7.6,27.2c-0.7,0-1.2-0.1-1.7-0.5s-0.6-0.9-0.7-1.6s0.1-1.3,0.4-1.7C5.9,23,6.4,22.7,7,22.7s1.1,0.1,1.4,0.4
		C8.8,23.4,9,23.9,9,24.5V25l-3,0.2c0,0.4,0.2,0.8,0.4,1c0.2,0.2,0.6,0.3,0.9,0.3s0.5-0.1,0.7-0.1c0.5-0.1,0.7-0.2,1-0.4v0.8
		c-0.2,0.1-0.4,0.2-0.7,0.3C8.1,27.1,7.9,27.2,7.6,27.2z M7.1,23.3c-0.3,0-0.5,0.1-0.7,0.3c-0.2,0.2-0.3,0.5-0.3,0.9l2-0.1
		c0-0.4-0.1-0.6-0.3-0.8C7.7,23.4,7.4,23.3,7.1,23.3z"/>
</g>
<g>
	<path class="st1" d="M4.4,38.1c-1.3,0.1-2.4-0.2-3.1-1S0.1,35.3,0,33.9c-0.1-1.5,0.2-2.6,0.8-3.5c0.7-0.8,1.7-1.3,3.1-1.4
		c0.9-0.1,1.8,0,2.5,0.3L6,30.9c-0.8-0.3-1.5-0.4-2-0.3c-1.5,0.1-2.2,1.2-2.1,3.2c0.1,1,0.3,1.7,0.7,2.2s1,0.7,1.7,0.6
		c0.8-0.1,1.6-0.3,2.3-0.8l0.1,1.6c-0.3,0.2-0.7,0.4-1,0.5C5.4,38,4.9,38.1,4.4,38.1z"/>
	<path class="st1" d="M16.4,32.7c0.1,1.4-0.2,2.6-0.9,3.4c-0.7,0.9-1.7,1.3-3,1.4c-0.8,0.1-1.6-0.1-2.2-0.4
		c-0.7-0.3-1.2-0.8-1.6-1.5S8.1,34.1,8,33.2c-0.1-1.4,0.2-2.6,0.9-3.4c0.7-0.9,1.7-1.3,3-1.4s2.3,0.2,3.1,1S16.3,31.3,16.4,32.7z
		 M10,33.1c0.1,2,1,3,2.5,2.9s2.2-1.2,2-3.2c-0.1-2-1-3-2.5-2.9c-0.8,0.1-1.3,0.4-1.6,0.9C10.1,31.4,9.9,32.2,10,33.1z"/>
	<path class="st1" d="M26.6,36.4l-1.9,0.1l-0.4-5.4c0-0.7-0.2-1.2-0.5-1.5s-0.7-0.5-1.3-0.4c-0.8,0.1-1.4,0.3-1.7,0.8
		s-0.5,1.3-0.4,2.4l0.3,4.4l-1.9,0.1l-0.6-8.8l1.5-0.1l0.3,1.1h0.1c0.2-0.4,0.6-0.8,1.1-1c0.5-0.3,1-0.4,1.6-0.5
		c2.1-0.1,3.2,0.9,3.4,3L26.6,36.4z"/>
	<path class="st1" d="M32.1,36.2c-1.1,0.1-2-0.3-2.6-1s-1.1-1.8-1.2-3.3c-0.1-1.4,0.1-2.6,0.7-3.4s1.4-1.3,2.5-1.4
		c1.2-0.1,2.1,0.3,2.7,1.1h0.1c-0.1-0.6-0.2-1.1-0.2-1.5l-0.2-3.2l1.9-0.1l0.9,12.4l-1.5,0.1l-0.4-1.1h-0.1
		C34.1,35.6,33.3,36.1,32.1,36.2z M32.5,34.6c0.8-0.1,1.3-0.3,1.6-0.8s0.5-1.2,0.4-2.1v-0.3c-0.1-1.1-0.3-1.9-0.7-2.3
		s-1-0.6-1.7-0.6s-1.1,0.3-1.5,0.9c-0.3,0.6-0.4,1.3-0.4,2.3c0.1,1,0.3,1.7,0.7,2.2C31.3,34.4,31.9,34.7,32.5,34.6z"/>
	<path class="st1" d="M45.5,35.1L45.2,34h-0.1c-0.2,0.4-0.6,0.8-1,1c-0.5,0.3-1,0.4-1.6,0.5c-1.1,0.1-1.9-0.1-2.4-0.6
		c-0.6-0.5-0.9-1.3-1-2.4l-0.4-5.7l1.9-0.1l0.4,5.4c0,0.7,0.2,1.2,0.5,1.5s0.7,0.5,1.3,0.4c0.8-0.1,1.3-0.3,1.7-0.8
		c0.3-0.5,0.5-1.3,0.4-2.4l-0.3-4.4l1.9-0.1L47,35L45.5,35.1z"/>
	<path class="st1" d="M48.7,23.7c0-0.3,0.1-0.6,0.2-0.8c0.2-0.2,0.4-0.3,0.8-0.3c0.3,0,0.6,0,0.8,0.2s0.3,0.4,0.3,0.8
		c0,0.3-0.1,0.6-0.2,0.8s-0.4,0.3-0.7,0.3s-0.6,0-0.8-0.2C48.9,24.2,48.8,24,48.7,23.7z M51.5,34.6l-1.9,0.1L49,26l1.9-0.1
		L51.5,34.6z"/>
	<path class="st1" d="M57.4,32.9c0.5,0,0.9-0.1,1.4-0.3l0.1,1.4c-0.2,0.1-0.5,0.2-0.8,0.3s-0.7,0.1-1,0.2c-1.8,0.1-2.7-0.7-2.8-2.6
		L54,27.2l-1.2,0.1l-0.1-0.8l1.2-0.8l0.5-1.9l1.2-0.1l0.1,2l2.5-0.2l0.1,1.4l-2.5,0.2l0.3,4.7c0,0.5,0.2,0.8,0.4,1
		S57,32.9,57.4,32.9z"/>
	<path class="st1" d="M64.4,33.9c-1.4,0.1-2.5-0.2-3.3-1c-0.8-0.7-1.3-1.8-1.4-3.2c-0.1-1.4,0.2-2.6,0.8-3.5s1.6-1.4,2.9-1.4
		c1.2-0.1,2.1,0.2,2.8,0.9c0.7,0.7,1.1,1.6,1.2,2.8l0.1,1l-5.9,0.4c0.1,0.9,0.4,1.5,0.8,1.9c0.4,0.4,1.1,0.6,1.9,0.6
		c0.5,0,1-0.1,1.4-0.2c0.4-0.1,0.9-0.3,1.4-0.6l0.1,1.5c-0.4,0.2-0.9,0.4-1.4,0.6C65.5,33.8,65,33.9,64.4,33.9z M63.5,26.2
		c-0.6,0-1.1,0.3-1.4,0.7c-0.3,0.4-0.5,1-0.5,1.7l4-0.3c-0.1-0.7-0.3-1.3-0.6-1.6C64.6,26.4,64.1,26.2,63.5,26.2z"/>
</g>
<g>
	<path class="st1" d="M23.5,22.9c-0.5-0.4-0.8-1-0.8-1.9v-0.4c0.3-2.7,0.6-5.6,1.1-8.6c0.4-3,0.8-5.3,1.1-6.9L21.8,6l-0.5,0.1
		c-0.5,0-0.9-0.2-1.2-0.6c-0.3-0.4-0.4-0.9-0.4-1.4V3.7c0.1-0.5,0.2-0.9,0.5-1.2s0.8-0.6,1.5-1c0.8-0.3,1.9-0.7,3.4-1l1.7-0.4
		c0.6,0,1.1-0.1,1.5-0.1c0.8,0,1.4,0.2,1.7,0.6c0.4,0.4,0.6,1,0.6,1.7c0,0.3,0,0.7-0.1,1c-0.4,2.1-1.2,8-2.4,17.7
		c-0.2,1.7-1.2,2.5-2.8,2.5C24.6,23.5,24,23.3,23.5,22.9z"/>
	<path class="st1" d="M36.6,21c-1.4-1.7-2.1-4.1-2.1-7.3c0-2.7,0.4-5.1,1.3-7.1c0.8-2.1,2-3.7,3.5-4.8C40.7,0.6,42.5,0,44.5,0
		c2.6,0,4.6,0.9,6.1,2.6c1.4,1.7,2.1,4.1,2.1,7.3c0,2.7-0.4,5.1-1.3,7.1c-0.8,2.1-2,3.7-3.5,4.8c-1.5,1.1-3.3,1.7-5.3,1.7
		C40,23.5,38,22.7,36.6,21z M46.4,16.7c0.8-1.6,1.2-3.8,1.2-6.5c0-1.8-0.3-3.2-0.9-4.2c-0.6-1-1.5-1.5-2.7-1.5
		c-1.4,0-2.6,0.8-3.4,2.4c-0.8,1.6-1.2,3.8-1.2,6.5c0,1.8,0.3,3.2,0.9,4.2c0.6,1,1.5,1.4,2.7,1.4C44.5,19.1,45.6,18.3,46.4,16.7z"/>
</g>
<g>
	<path class="st0" d="M28.8,6.3L28,13c-0.2,2.2-0.5,4.5-1,6.7l0,0c0.2-2.3,0.5-4.5,0.8-6.7L28.8,6.3L28.8,6.3z"/>
</g>
<g>
	<path class="st0" d="M44.4,20.4c0.9,0,1.8-0.4,2.4-1.1c0.6-0.7,1-1.5,1.3-2.4s0.5-1.8,0.6-2.7s0.2-1.8,0.3-2.7l0,0
		c0.1,1.8,0,3.7-0.7,5.5c-0.3,0.9-0.8,1.7-1.4,2.4C46.3,20.1,45.3,20.5,44.4,20.4L44.4,20.4z"/>
</g>
</svg>
