<?xml version="1.0" encoding="UTF-8"?>
<svg width="105px" height="105px" viewBox="0 0 105 105" version="1.1" xmlns="http://www.w3.org/2000/svg" xmlns:xlink="http://www.w3.org/1999/xlink">
    <!-- Generator: Sketch 50.2 (55047) - http://www.bohemiancoding.com/sketch -->
    <title>atome / icone / collision</title>
    <desc>Created with Sketch.</desc>
    <defs>
        <path d="M18.5862718,7.451695 L18.4691959,7.45227747 L18.1861168,7.69749619 L11.9245936,11.7939885 C11.6898593,11.9471774 11.4702692,12.1166754 11.2634933,12.2989876 C11.2634933,12.2989876 6.63346099,14.6125476 10.9553681,22.1199682 C11.3089257,22.8358205 11.8051879,23.6233162 12.2787337,24.4597392 L11.6391847,26.7465057 C11.4568724,27.3965392 11.8366411,28.0704538 12.4866746,28.2521836 C12.5955959,28.2830544 12.7074297,28.2976161 12.8151861,28.2976161 C13.3353294,28.2976161 13.8106227,27.9621149 13.9760434,27.4483788 C14.8334352,28.9528917 15.5207466,30.1481146 15.6628686,30.3677047 L25.523457,45.4338031 C26.3756066,46.7344525 27.7100391,47.6029112 29.2850306,47.8766708 C29.6222791,47.9355 29.9665173,47.9652058 30.310173,47.9652058 C31.368516,47.9652058 32.4076376,47.6873689 33.334343,47.1579062 L41.7638093,41.6588327 C43.0929996,40.7892091 44.0068908,39.447787 44.3383147,37.8786202 C44.6644963,36.3141131 44.3651081,34.7187352 43.4925722,33.3854676 L33.7496422,18.4900322 C33.3943372,17.9471727 32.6115011,16.8719381 31.6923678,15.6341952 L31.9853488,15.6761328 C32.0435956,15.6848698 32.1024248,15.6883646 32.1589241,15.6883646 C32.757118,15.6883646 33.280756,15.2486019 33.3675437,14.6387586 C33.4624858,13.9706687 32.9982594,13.3520884 32.3307519,13.2565638 L29.9443835,12.9169854 C29.8447816,12.9024237 29.7469271,12.9041711 29.65082,12.914073 C28.1486369,10.9284421 26.8043025,9.17288578 26.6843142,9.01736702 C25.5094777,7.53557029 23.6380104,6.65080251 21.6768431,6.65080251 C20.5742326,6.65080251 19.5135597,6.92689199 18.5862718,7.451695 Z M29.7026596,45.4699161 C28.8039126,45.3132324 28.0467052,44.8251248 27.569082,44.0958758 L17.7096586,29.0291949 C17.4248321,28.5905971 14.1024388,22.7257342 11.9542995,18.9181456 C11.0363311,17.1888003 11.6228756,14.9107708 13.262521,13.8390311 L19.2933871,9.89281532 L19.5991824,9.69419398 C20.2008711,9.30161104 20.9196357,9.0942527 21.6762607,9.0942527 C22.898277,9.0942527 24.053892,9.63245245 24.75693,10.5189676 C24.8157592,10.5941059 30.5996592,18.1405518 31.7057645,19.8279595 L41.4475296,34.72223 C41.9612657,35.5103082 42.1389182,36.4539052 41.9461216,37.3765334 C41.7504126,38.3061511 41.2093005,39.1012189 40.425882,39.6149551 L32.3179376,44.9159897 C31.7110067,45.3126499 31.0062214,45.5217556 30.3037658,45.5217556 C30.1028146,45.5217556 29.9012809,45.5042816 29.7026596,45.4699161 Z" id="path-1"></path>
        <path d="M28.9205975,12.3599504 C28.8105112,12.3809193 26.1725169,12.8731041 23.2496961,14.7777721 L23.1978566,14.8133026 C20.3548338,16.6806926 18.8730371,18.800291 18.7116937,19.0379377 C18.2486322,19.7246666 18.2101893,20.6117642 18.6115093,21.3526626 L21.3193996,26.3636285 C21.6583956,26.9845386 22.2705687,27.4190592 22.9602099,27.5250682 C23.0714612,27.5419598 23.1838773,27.5501143 23.2927987,27.5501143 C23.7139226,27.5501143 24.1216496,27.4295436 24.4443365,27.2186905 C24.6039325,27.1214184 24.7489669,27.0002652 24.8852642,26.8517361 C24.9615674,26.7690257 26.7695458,24.823585 28.8978812,23.4291584 C31.0634945,22.0178402 33.5681038,21.1610309 33.5983921,21.1505465 C34.2833736,20.9187245 34.8029344,20.358391 34.9893239,19.654188 C35.1687239,18.9791085 35.015535,18.2434523 34.5798494,17.6837013 L31.0786387,13.1963734 C30.6516902,12.6482717 29.9806879,12.3261673 29.2997837,12.3261673 C29.1733883,12.3261673 29.0464104,12.3372342 28.9205975,12.3599504 Z M20.8173128,20.2943196 C21.1382523,19.859799 22.4080309,18.2504419 24.5614124,16.8414536 L24.6091747,16.8088354 C26.7945919,15.3905276 28.7848826,14.8896058 29.222898,14.7882565 L32.4753952,18.9581397 C31.6378073,19.2685947 29.4908329,20.1248216 27.5605364,21.3829509 C25.6110184,22.6603016 23.9538991,24.2952872 23.3289117,24.9418259 L20.8173128,20.2943196 Z" id="path-3"></path>
        <path d="M30.0469682,29.9155959 C29.4679957,30.0350017 26.4479029,30.7170709 23.8693203,32.3992364 C21.0414417,34.247405 19.1192997,37.0677115 19.1082329,37.0846031 C18.5374149,37.9093767 18.6009039,39.0306262 19.2631692,39.8111324 L21.7258408,42.7129843 C22.1551192,43.2226432 22.7795241,43.5150417 23.4377121,43.5150417 C23.5676023,43.5150417 23.6974925,43.5033924 23.8378671,43.4783463 C24.1174514,43.4247593 26.6232256,42.9098582 29.4045068,41.1228487 L29.6928281,41.0022779 L29.7638891,40.885202 C32.4677021,39.0545074 33.8801853,37.0327635 34.035704,36.8032714 C34.480709,36.1497431 34.5348785,35.2935162 34.1801559,34.5700919 L32.5084748,31.1475142 C32.1298711,30.3705029 31.3371332,29.8701635 30.4878959,29.8701635 C30.3498511,29.8701635 30.2106415,29.8835602 30.0469682,29.9155959 Z M21.2185118,38.3357428 C21.6046876,37.807445 23.1656999,35.778129 25.2055002,34.444279 C27.2190896,33.1308153 29.6444833,32.5104876 30.3719849,32.3450669 L31.9335796,35.5404824 C31.6184649,35.9680133 30.360918,37.5663035 28.2279229,38.971797 L28.1650164,39.0125697 C26.0052278,40.4203931 24.0318287,40.9317994 23.5163452,41.0482928 L21.2185118,38.3357428 Z" id="path-5"></path>
        <path d="M28.5862718,7.451695 L28.4691959,7.45227747 L28.1861168,7.69749619 L21.9245936,11.7939885 C21.6898593,11.9471774 21.4702692,12.1166754 21.2634933,12.2989876 C21.2634933,12.2989876 16.633461,14.6125476 20.9553681,22.1199682 C21.3089257,22.8358205 21.8051879,23.6233162 22.2787337,24.4597392 L21.6391847,26.7465057 C21.4568724,27.3965392 21.8366411,28.0704538 22.4866746,28.2521836 C22.5955959,28.2830544 22.7074297,28.2976161 22.8151861,28.2976161 C23.3353294,28.2976161 23.8106227,27.9621149 23.9760434,27.4483788 C24.8334352,28.9528917 25.5207466,30.1481146 25.6628686,30.3677047 L35.523457,45.4338031 C36.3756066,46.7344525 37.7100391,47.6029112 39.2850306,47.8766708 C39.6222791,47.9355 39.9665173,47.9652058 40.310173,47.9652058 C41.368516,47.9652058 42.4076376,47.6873689 43.334343,47.1579062 L51.7638093,41.6588327 C53.0929996,40.7892091 54.0068908,39.447787 54.3383147,37.8786202 C54.6644963,36.3141131 54.3651081,34.7187352 53.4925722,33.3854676 L43.7496422,18.4900322 C43.3943372,17.9471727 42.6115011,16.8719381 41.6923678,15.6341952 L41.9853488,15.6761328 C42.0435956,15.6848698 42.1024248,15.6883646 42.1589241,15.6883646 C42.757118,15.6883646 43.280756,15.2486019 43.3675437,14.6387586 C43.4624858,13.9706687 42.9982594,13.3520884 42.3307519,13.2565638 L39.9443835,12.9169854 C39.8447816,12.9024237 39.7469271,12.9041711 39.65082,12.914073 C38.1486369,10.9284421 36.8043025,9.17288578 36.6843142,9.01736702 C35.5094777,7.53557029 33.6380104,6.65080251 31.6768431,6.65080251 C30.5742326,6.65080251 29.5135597,6.92689199 28.5862718,7.451695 Z M39.7026596,45.4699161 C38.8039126,45.3132324 38.0467052,44.8251248 37.569082,44.0958758 L27.7096586,29.0291949 C27.4248321,28.5905971 24.1024388,22.7257342 21.9542995,18.9181456 C21.0363311,17.1888003 21.6228756,14.9107708 23.262521,13.8390311 L29.2933871,9.89281532 L29.5991824,9.69419398 C30.2008711,9.30161104 30.9196357,9.0942527 31.6762607,9.0942527 C32.898277,9.0942527 34.053892,9.63245245 34.75693,10.5189676 C34.8157592,10.5941059 40.5996592,18.1405518 41.7057645,19.8279595 L51.4475296,34.72223 C51.9612657,35.5103082 52.1389182,36.4539052 51.9461216,37.3765334 C51.7504126,38.3061511 51.2093005,39.1012189 50.425882,39.6149551 L42.3179376,44.9159897 C41.7110067,45.3126499 41.0062214,45.5217556 40.3037658,45.5217556 C40.1028146,45.5217556 39.9012809,45.5042816 39.7026596,45.4699161 Z" id="path-7"></path>
        <path d="M38.9205975,12.3599504 C38.8105112,12.3809193 36.1725169,12.8731041 33.2496961,14.7777721 L33.1978566,14.8133026 C30.3548338,16.6806926 28.8730371,18.800291 28.7116937,19.0379377 C28.2486322,19.7246666 28.2101893,20.6117642 28.6115093,21.3526626 L31.3193996,26.3636285 C31.6583956,26.9845386 32.2705687,27.4190592 32.9602099,27.5250682 C33.0714612,27.5419598 33.1838773,27.5501143 33.2927987,27.5501143 C33.7139226,27.5501143 34.1216496,27.4295436 34.4443365,27.2186905 C34.6039325,27.1214184 34.7489669,27.0002652 34.8852642,26.8517361 C34.9615674,26.7690257 36.7695458,24.823585 38.8978812,23.4291584 C41.0634945,22.0178402 43.5681038,21.1610309 43.5983921,21.1505465 C44.2833736,20.9187245 44.8029344,20.358391 44.9893239,19.654188 C45.1687239,18.9791085 45.015535,18.2434523 44.5798494,17.6837013 L41.0786387,13.1963734 C40.6516902,12.6482717 39.9806879,12.3261673 39.2997837,12.3261673 C39.1733883,12.3261673 39.0464104,12.3372342 38.9205975,12.3599504 Z M30.8173128,20.2943196 C31.1382523,19.859799 32.4080309,18.2504419 34.5614124,16.8414536 L34.6091747,16.8088354 C36.7945919,15.3905276 38.7848826,14.8896058 39.222898,14.7882565 L42.4753952,18.9581397 C41.6378073,19.2685947 39.4908329,20.1248216 37.5605364,21.3829509 C35.6110184,22.6603016 33.9538991,24.2952872 33.3289117,24.9418259 L30.8173128,20.2943196 Z" id="path-9"></path>
        <path d="M40.0469682,29.9155959 C39.4679957,30.0350017 36.4479029,30.7170709 33.8693203,32.3992364 C31.0414417,34.247405 29.1192997,37.0677115 29.1082329,37.0846031 C28.5374149,37.9093767 28.6009039,39.0306262 29.2631692,39.8111324 L31.7258408,42.7129843 C32.1551192,43.2226432 32.7795241,43.5150417 33.4377121,43.5150417 C33.5676023,43.5150417 33.6974925,43.5033924 33.8378671,43.4783463 C34.1174514,43.4247593 36.6232256,42.9098582 39.4045068,41.1228487 L39.6928281,41.0022779 L39.7638891,40.885202 C42.4677021,39.0545074 43.8801853,37.0327635 44.035704,36.8032714 C44.480709,36.1497431 44.5348785,35.2935162 44.1801559,34.5700919 L42.5084748,31.1475142 C42.1298711,30.3705029 41.3371332,29.8701635 40.4878959,29.8701635 C40.3498511,29.8701635 40.2106415,29.8835602 40.0469682,29.9155959 Z M31.2185118,38.3357428 C31.6046876,37.807445 33.1656999,35.778129 35.2055002,34.444279 C37.2190896,33.1308153 39.6444833,32.5104876 40.3719849,32.3450669 L41.9335796,35.5404824 C41.6184649,35.9680133 40.360918,37.5663035 38.2279229,38.971797 L38.1650164,39.0125697 C36.0052278,40.4203931 34.0318287,40.9317994 33.5163452,41.0482928 L31.2185118,38.3357428 Z" id="path-11"></path>
    </defs>
    <g id="atome-/-icone-/-collision" stroke="none" stroke-width="1" fill="none" fill-rule="evenodd">
        <g id="Group-2" transform="translate(18.000000, 5.000000)">
            <path d="M5.7036201,49.2004062 L10.5135531,51.9244055 L8.0365895,56.0341835 C7.74331702,56.5209894 7.77700372,57.1372579 8.12179705,57.5890561 C8.46659038,58.0415147 9.05445639,58.2376902 9.59806733,58.0837882 L14.512363,56.7052755 L15.0533319,59.8493679 C15.1306131,60.2952213 15.4199225,60.6750224 15.8287866,60.8678953 C16.0163753,60.9557449 16.217835,61 16.4192947,61 C16.6584042,61 16.8961927,60.9385713 17.1088813,60.8163744 L20.8051715,58.6954331 C21.4689977,58.314311 21.6988599,57.4681802 21.3177378,56.8036935 C20.9366157,56.1392067 20.0898244,55.910005 19.4259982,56.2911272 L17.4483905,57.4259067 L16.9820608,54.7210625 C16.9153479,54.3346562 16.6887883,53.993826 16.3565449,53.7851006 C16.0249621,53.5757146 15.6194006,53.516928 15.2429021,53.6226118 L12.2137408,54.4720451 L13.6213167,52.1357731 C13.8141896,51.8154192 13.8696735,51.4309944 13.7738976,51.0690275 C13.6794427,50.707721 13.4429753,50.3992565 13.1166766,50.2149704 L10.6707577,48.8291919 L14.6391835,48.3080388 C15.0526713,48.2532153 15.4199225,48.0154268 15.6385558,47.6607256 C15.8578496,47.3053639 15.9047468,46.8707394 15.7666974,46.4770673 L14.6424862,43.2609778 L18.1419403,44.14674 C18.6406356,44.2722395 19.169715,44.1123928 19.5125268,43.7292891 C19.8573201,43.3468459 19.9597013,42.8052165 19.7820204,42.3223738 L18.149206,37.9061129 C17.8823545,37.1874632 17.0851025,36.8202121 16.3684344,37.0870636 C15.6504452,37.3519336 15.2838546,38.1491856 15.5487246,38.8671747 L16.2693558,40.8137378 L12.8240647,39.9418467 C12.329993,39.8176682 11.8061978,39.9728913 11.4614044,40.3493897 C11.1172716,40.7258882 11.0069642,41.2609123 11.1753977,41.742434 L12.5875972,45.7815359 L6.20495752,46.6204009 C5.61444941,46.6983427 5.13953293,47.1441962 5.02526235,47.7294201 C4.91231281,48.3139835 5.18510906,48.9064732 5.7036201,49.2004062 Z" id="Shape" fill="#000000" fill-rule="nonzero" transform="translate(13.250906, 49.000000) rotate(29.000000) translate(-13.250906, -49.000000) "></path>
            <g id="Group" transform="translate(10.000000, 40.000000)">
                <mask id="mask-2" fill="white">
                    <use xlink:href="#path-1"></use>
                </mask>
                <g id="Clip-2" transform="translate(26.789045, 27.308004) rotate(33.000000) translate(-26.789045, -27.308004) "></g>
                <polygon id="Fill-1" fill="#000000" mask="url(#mask-2)" transform="translate(26.537319, 27.144531) rotate(33.000000) translate(-26.537319, -27.144531) " points="5.64742197 50.7140694 47.4272166 50.7140694 47.4272166 3.57499335 5.64742197 3.57499335"></polygon>
                <mask id="mask-4" fill="white">
                    <use xlink:href="#path-3"></use>
                </mask>
                <g id="Clip-5" transform="translate(26.699145, 19.938141) rotate(33.000000) translate(-26.699145, -19.938141) "></g>
                <polygon id="Fill-4" fill="#000000" mask="url(#mask-4)" transform="translate(26.699324, 19.938257) rotate(33.000000) translate(-26.699324, -19.938257) " points="15.423049 30.462567 37.9755992 30.462567 37.9755992 9.41394735 15.423049 9.41394735"></polygon>
                <mask id="mask-6" fill="white">
                    <use xlink:href="#path-5"></use>
                </mask>
                <g id="Clip-8" transform="translate(26.566059, 36.692603) rotate(33.000000) translate(-26.566059, -36.692603) "></g>
                <polygon id="Fill-7" fill="#000000" mask="url(#mask-6)" transform="translate(26.566130, 36.692649) rotate(33.000000) translate(-26.566130, -36.692649) " points="15.8073772 46.427424 37.3248831 46.427424 37.3248831 26.9578731 15.8073772 26.9578731"></polygon>
            </g>
            <mask id="mask-8" fill="white">
                <use xlink:href="#path-7"></use>
            </mask>
            <g id="Clip-2" transform="translate(36.789045, 27.308004) rotate(33.000000) translate(-36.789045, -27.308004) "></g>
            <polygon id="Fill-1" fill="#000000" mask="url(#mask-8)" transform="translate(36.537319, 27.144531) rotate(33.000000) translate(-36.537319, -27.144531) " points="15.647422 50.7140694 57.4272166 50.7140694 57.4272166 3.57499335 15.647422 3.57499335"></polygon>
            <mask id="mask-10" fill="white">
                <use xlink:href="#path-9"></use>
            </mask>
            <g id="Clip-5" transform="translate(36.699145, 19.938141) rotate(33.000000) translate(-36.699145, -19.938141) "></g>
            <polygon id="Fill-4" fill="#000000" mask="url(#mask-10)" transform="translate(36.699324, 19.938257) rotate(33.000000) translate(-36.699324, -19.938257) " points="25.423049 30.462567 47.9755992 30.462567 47.9755992 9.41394735 25.423049 9.41394735"></polygon>
            <mask id="mask-12" fill="white">
                <use xlink:href="#path-11"></use>
            </mask>
            <g id="Clip-8" transform="translate(36.566059, 36.692603) rotate(33.000000) translate(-36.566059, -36.692603) "></g>
            <polygon id="Fill-7" fill="#000000" mask="url(#mask-12)" transform="translate(36.566130, 36.692649) rotate(33.000000) translate(-36.566130, -36.692649) " points="25.8073772 46.427424 47.3248831 46.427424 47.3248831 26.9578731 25.8073772 26.9578731"></polygon>
        </g>
    </g>
</svg>