<?xml version="1.0" encoding="UTF-8"?>
<svg width="105px" height="105px" viewBox="0 0 105 105" version="1.1" xmlns="http://www.w3.org/2000/svg" xmlns:xlink="http://www.w3.org/1999/xlink">
    <!-- Generator: Sketch 50.2 (55047) - http://www.bohemiancoding.com/sketch -->
    <title>atome / icone / vitesse</title>
    <desc>Created with Sketch.</desc>
    <defs></defs>
    <g id="atome-/-icone-/-vitesse" stroke="none" stroke-width="1" fill="none" fill-rule="evenodd">
        <g id="Group" transform="translate(11.000000, 9.000000)" fill="#000000">
            <polygon id="Shape" points="58.9808928 25.52992 55.4531157 31.6427733 57.8950005 33.0539733 61.4227787 26.9410133"></polygon>
            <polygon id="Shape" points="8.8644 38.9627733 7.45328853 41.4049067 13.5607541 44.9326933 14.9718645 42.49056"></polygon>
            <path d="M41.154592,19.7144533 C32.1264661,19.7146667 23.095232,22.7988267 15.7545909,28.9582933 C1.07323189,41.2781867 -2.64499317,62.3813333 6.93514667,78.98112 C7.32410629,79.654347 8.18432198,79.8861536 8.85888747,79.49952 C10.9002155,78.3266133 12.9351029,77.1534933 14.9718645,75.9773867 L13.5607541,73.5300267 C12.0031819,74.4292267 10.4495157,75.32864 8.89196053,76.2254933 C0.89629888,61.00832 4.30442357,42.25408 17.5736011,31.11936 C31.2201259,19.66848 51.0886592,19.6690133 64.7355819,31.11936 C78.0051349,42.2538667 81.4123851,61.0081067 73.4172235,76.2254933 C71.8587808,75.3284267 70.3030197,74.4350933 68.7484299,73.53536 L67.3318069,75.9773867 C69.3697365,77.1565867 71.4114816,78.3269333 73.4502944,79.49952 C73.774791,79.6869703 74.1605188,79.7376604 74.5224286,79.6404134 C74.8843384,79.5431665 75.1927094,79.3059688 75.3795488,78.98112 C84.9591424,62.3810133 81.2308224,41.2775467 66.5490805,28.9582933 C59.2082293,22.7991467 50.1827168,19.7144533 41.154592,19.7144533 Z" id="Shape"></path>
            <polygon id="Shape" points="23.3227765 25.52992 20.8808928 26.9410133 24.4086699 33.0539733 26.8505557 31.6427733"></polygon>
            <polygon id="Shape" points="39.7434805 21.1255467 39.7434805 28.18112 42.5657024 28.18112 42.5657024 21.1255467"></polygon>
            <polygon id="Shape" points="73.4447829 38.9627733 67.3318069 42.49056 68.7429184 44.9326933 74.8558933 41.4049067"></polygon>
            <polygon id="Shape" points="3.05459029 57.8200533 3.05459029 60.64224 10.1101461 60.64224 10.1101461 57.8200533"></polygon>
            <polygon id="Shape" points="72.1990368 57.8200533 72.1990368 60.64224 79.254592 60.64224 79.254592 57.8200533"></polygon>
            <path d="M67.7066315,3.49226667 C67.2397865,3.52714761 66.8206236,3.79126463 66.5876661,4.19733333 L64.3166571,8.14954667 L61.5660939,6.71072 C61.0698606,6.45113161 60.4670821,6.5095302 60.029909,6.85954919 C59.5927359,7.20956818 59.4038944,7.78497351 59.5486453,8.32597333 L62.5252096,19.3777067 C62.7272325,20.1287754 63.4988433,20.5748146 64.2505131,20.37504 L75.3850603,17.40416 C75.9341417,17.2562773 76.3408276,16.7932966 76.4166873,16.229732 C76.4925469,15.6661674 76.2227587,15.1121287 75.7323243,14.82432 L73.1140523,13.2974933 L75.4401824,9.33429333 C75.6299196,9.00999028 75.6825014,8.62341387 75.5862776,8.26021465 C75.4900539,7.89701542 75.2529694,7.58718142 74.9275531,7.39936 L68.5169173,3.67882667 C68.2716989,3.53664136 67.9893462,3.47159512 67.7066347,3.49216 L67.7066315,3.49226667 Z M68.3295008,6.83264 L72.2872267,9.13109333 L69.9610976,13.08896 C69.7710023,13.4125647 69.7176367,13.7985608 69.8128002,14.1616037 C69.9079636,14.5246467 70.1438168,14.8348306 70.4682123,15.0235733 L71.3777163,15.55264 L64.8844011,17.28352 L63.109488,10.7074133 L64.2119189,11.2802133 C64.8834666,11.6283625 65.7100865,11.3851279 66.0860491,10.7287467 L68.3295008,6.83264 Z" id="Shape"></path>
            <path d="M52.7245995,37.66208 C52.3163368,37.6809582 51.9363078,37.8758987 51.6828075,38.19648 L39.3686581,53.8784 C39.0563648,54.275126 38.9797681,54.8084491 39.1677846,55.2770303 C39.3558011,55.7456116 39.7797917,56.0780759 40.2796926,56.1489119 C40.7795934,56.219748 41.2792585,56.018166 41.5900555,55.6202667 L47.8022517,47.7047467 L44.0539883,57.0423467 C43.8546884,57.5123367 43.9247456,58.0533194 44.2371907,58.4570385 C44.5496358,58.8607577 45.055753,59.0642661 45.5607078,58.9892213 C46.0656626,58.9141766 46.4907234,58.5722796 46.6722592,58.0951467 L54.1026432,39.5963733 C54.2814053,39.150335 54.2209251,38.6439882 53.9421373,38.2526016 C53.6633495,37.861215 53.2045701,37.6385799 52.7246027,37.66176 L52.7245995,37.66208 Z" id="Shape"></path>
            <path d="M43.9790688,54.33376 C41.2910176,52.7818667 37.8130496,53.7140267 36.2610955,56.4016 C34.7091413,59.0898133 35.6410528,62.5675733 38.3291211,64.1197867 C41.0171829,65.6717867 44.4951371,64.73952 46.0470912,62.0517333 C47.5990453,59.36352 46.6671445,55.8856533 43.9790688,54.33376 Z M42.5679573,56.7778133 C43.9351349,57.5671467 44.3923093,59.2734933 43.602976,60.6405333 C42.8136533,62.00768 41.1073941,62.4648533 39.7402304,61.6752 C38.3730645,60.8858667 37.9158923,59.1797333 38.7052117,57.8123733 C39.4945451,56.4453333 41.2008043,55.98816 42.5679563,56.7777067 L42.5679573,56.7778133 Z" id="Shape" fill-rule="nonzero"></path>
        </g>
    </g>
</svg>