<?xml version="1.0" encoding="UTF-8"?>
<svg width="105px" height="105px" viewBox="0 0 105 105" version="1.1" xmlns="http://www.w3.org/2000/svg" xmlns:xlink="http://www.w3.org/1999/xlink">
    <!-- Generator: Sketch 50.2 (55047) - http://www.bohemiancoding.com/sketch -->
    <title>atome / icone / vitesse moins</title>
    <desc>Created with Sketch.</desc>
    <defs></defs>
    <g id="atome-/-icone-/-vitesse-moins" stroke="none" stroke-width="1" fill="none" fill-rule="evenodd">
        <g id="Group" transform="translate(12.000000, 12.000000)" fill="#000000">
            <polygon id="Shape" points="57.9808928 22.52992 54.4531157 28.6427733 56.8950005 30.0539733 60.4227787 23.9410133"></polygon>
            <polygon id="Shape" points="7.8644 35.9627733 6.45328853 38.4049067 12.5607541 41.9326933 13.9718645 39.49056"></polygon>
            <path d="M40.154592,16.7144533 C31.1264661,16.7146667 22.095232,19.7988267 14.7545909,25.9582933 C0.0732318933,38.2781867 -3.64499317,59.3813333 5.93514667,75.98112 C6.32410629,76.654347 7.18432198,76.8861536 7.85888747,76.49952 C9.90021547,75.3266133 11.9351029,74.1534933 13.9718645,72.9773867 L12.5607541,70.5300267 C11.0031819,71.4292267 9.44951573,72.32864 7.89196053,73.2254933 C-0.10370112,58.00832 3.30442357,39.25408 16.5736011,28.11936 C30.2201259,16.66848 50.0886592,16.6690133 63.7355819,28.11936 C77.0051349,39.2538667 80.4123851,58.0081067 72.4172235,73.2254933 C70.8587808,72.3284267 69.3030197,71.4350933 67.7484299,70.53536 L66.3318069,72.9773867 C68.3697365,74.1565867 70.4114816,75.3269333 72.4502944,76.49952 C72.774791,76.6869703 73.1605188,76.7376604 73.5224286,76.6404134 C73.8843384,76.5431665 74.1927094,76.3059688 74.3795488,75.98112 C83.9591424,59.3810133 80.2308224,38.2775467 65.5490805,25.9582933 C58.2082293,19.7991467 49.1827168,16.7144533 40.154592,16.7144533 Z" id="Shape"></path>
            <polygon id="Shape" points="22.3227765 22.52992 19.8808928 23.9410133 23.4086699 30.0539733 25.8505557 28.6427733"></polygon>
            <polygon id="Shape" points="38.7434805 18.1255467 38.7434805 25.18112 41.5657024 25.18112 41.5657024 18.1255467"></polygon>
            <polygon id="Shape" points="72.4447829 35.9627733 66.3318069 39.49056 67.7429184 41.9326933 73.8558933 38.4049067"></polygon>
            <polygon id="Shape" points="2.05459029 54.8200533 2.05459029 57.64224 9.11014613 57.64224 9.11014613 54.8200533"></polygon>
            <polygon id="Shape" points="71.1990368 54.8200533 71.1990368 57.64224 78.254592 57.64224 78.254592 54.8200533"></polygon>
            <path d="M12.2060025,0.00382643688 C11.7391575,0.0387073792 11.3199945,0.302824404 11.0870371,0.708893104 L8.81602805,4.66110644 L6.06546485,3.22227977 C5.56923158,2.96269138 4.96645306,3.02108997 4.52927996,3.37110896 C4.09210687,3.72112795 3.90326542,4.29653328 4.04801632,4.8375331 L7.02458059,15.8892664 C7.22660353,16.6403352 7.99821424,17.0863744 8.74988405,16.8865998 L19.8844313,13.9157198 C20.4335127,13.767837 20.8401986,13.3048564 20.9160582,12.7412917 C20.9919179,12.1777271 20.7221297,11.6236884 20.2316953,11.3358798 L17.6134233,9.8090531 L19.9395534,5.8458531 C20.1292906,5.52155005 20.1818724,5.13497364 20.0856486,4.77177442 C19.9894249,4.40857519 19.7523404,4.09874119 19.4269241,3.91091977 L13.0162883,0.190386437 C12.7710699,0.0482011333 12.4887172,-0.0168451095 12.2060057,0.00371977021 L12.2060025,0.00382643688 Z M12.8288718,3.34419977 L16.7865977,5.6426531 L14.4604686,9.60051977 C14.2703733,9.92412451 14.2170077,10.3101205 14.3121711,10.6731635 C14.4073346,11.0362064 14.6431878,11.3463904 14.9675833,11.5351331 L15.8770873,12.0641998 L9.38377205,13.7950798 L7.60885899,7.2189731 L8.71128992,7.7917731 C9.38283756,8.13992226 10.2094575,7.89668764 10.5854201,7.24030644 L12.8288718,3.34419977 Z" id="Shape" transform="translate(12.464358, 8.467147) scale(-1, 1) translate(-12.464358, -8.467147) "></path>
            <g id="Group-2" transform="translate(37.000000, 48.000000) scale(-1, 1) translate(-37.000000, -48.000000) translate(27.000000, 34.000000)">
                <path d="M17.7245995,0.66208 C17.3163368,0.68095815 16.9363078,0.875898683 16.6828075,1.19648 L4.36865813,16.8784 C4.05636481,17.275126 3.97976809,17.8084491 4.16778458,18.2770303 C4.35580107,18.7456116 4.77979172,19.0780759 5.27969256,19.1489119 C5.77959339,19.219748 6.2792585,19.018166 6.59005547,18.6202667 L12.8022517,10.7047467 L9.05398827,20.0423467 C8.8546884,20.5123367 8.9247456,21.0533194 9.23719072,21.4570385 C9.54963584,21.8607577 10.055753,22.0642661 10.5607078,21.9892213 C11.0656626,21.9141766 11.4907234,21.5722796 11.6722592,21.0951467 L19.1026432,2.59637333 C19.2814053,2.15033498 19.2209251,1.64398821 18.9421373,1.25260162 C18.6633495,0.86121502 18.2045701,0.638579926 17.7246027,0.66176 L17.7245995,0.66208 Z" id="Shape"></path>
                <path d="M8.9790688,17.33376 C6.2910176,15.7818667 2.8130496,16.7140267 1.26109547,19.4016 C-0.290858667,22.0898133 0.6410528,25.5675733 3.32912107,27.1197867 C6.01718293,28.6717867 9.49513707,27.73952 11.0470912,25.0517333 C12.5990453,22.36352 11.6671445,18.8856533 8.9790688,17.33376 Z M7.56795733,19.7778133 C8.93513493,20.5671467 9.39230933,22.2734933 8.602976,23.6405333 C7.81365333,25.00768 6.10739413,25.4648533 4.7402304,24.6752 C3.37306453,23.8858667 2.91589227,22.1797333 3.70521173,20.8123733 C4.49454507,19.4453333 6.20080427,18.98816 7.56795627,19.7777067 L7.56795733,19.7778133 Z" id="Shape" fill-rule="nonzero"></path>
            </g>
        </g>
    </g>
</svg>