<?xml version="1.0" encoding="UTF-8"?>
<svg width="105px" height="105px" viewBox="0 0 105 105" version="1.1" xmlns="http://www.w3.org/2000/svg" xmlns:xlink="http://www.w3.org/1999/xlink">
    <!-- Generator: Sketch 50.2 (55047) - http://www.bohemiancoding.com/sketch -->
    <title>atome / icone / cligno</title>
    <desc>Created with Sketch.</desc>
    <defs></defs>
    <g id="atome-/-icone-/-cligno" stroke="none" stroke-width="1" fill="none" fill-rule="evenodd">
        <g id="Group" transform="translate(11.000000, 37.000000)" fill="#000000">
            <path d="M15.5232,0.08598 C15.19,0.08598 14.8764,0.22318 14.6412,0.45838 L0.3822,14.72718 C-0.1274,15.22698 -0.1274,16.05018 0.3822,16.55978 L14.6412,30.81878 C15.1508,31.32838 15.9642,31.32838 16.4738,30.81878 C16.7188,30.57378 16.856,30.25038 16.856,29.89758 L16.856,22.12618 L29.8116,22.12618 C30.5368,22.13598 31.1248,21.56758 31.1346,20.85218 C31.1444,20.12698 30.576,19.53898 29.8606,19.52918 L29.8116,19.52918 L15.5526,19.52918 C14.847,19.52918 14.259,20.10738 14.259,20.82278 L14.259,26.77138 L3.1262,15.63858 L14.259,4.51558 L14.2492,10.45438 C14.2492,11.16978 14.8274,11.74798 15.5428,11.74798 L29.8018,11.74798 C30.5172,11.75778 31.1052,11.18938 31.115,10.47398 C31.1248,9.75858 30.5564,9.17058 29.841,9.16078 L29.8018,9.16078 L16.8462,9.16078 L16.856,1.37958 C16.856,0.66418 16.2778,0.08598 15.5526,0.08598 L15.5232,0.08598 Z" id="Fill-1"></path>
            <polygon id="Fill-4" points="28.5278 22.1252 31.115 22.1252 31.115 9.1598 28.5278 9.1598"></polygon>
            <polygon id="Fill-6" points="33.7022 22.1252 36.2992 22.1252 36.2992 9.1598 33.7022 9.1598"></polygon>
            <path d="M67.39362,0.08598 C66.68802,0.09578 66.11962,0.67398 66.11962,1.37958 L66.12942,9.16078 L53.17382,9.16078 C52.45842,9.14118 51.87042,9.70958 51.86062,10.43478 C51.84102,11.15018 52.41922,11.73818 53.13462,11.74798 L53.17382,11.74798 L67.42302,11.74798 C68.13842,11.74798 68.72642,11.16978 68.72642,10.45438 L68.71662,4.51558 L79.84942,15.63858 L68.71662,26.77138 L68.71662,20.82278 C68.71662,20.10738 68.12862,19.52918 67.41322,19.52918 L53.15422,19.52918 C52.43882,19.51938 51.85082,20.08778 51.83122,20.80318 C51.82142,21.51858 52.39962,22.11638 53.11502,22.12618 L53.15422,22.12618 L66.11962,22.12618 L66.11962,29.89758 C66.11962,30.62278 66.70762,31.20098 67.41322,31.20098 C67.75622,31.20098 68.08942,31.06378 68.33442,30.81878 L82.59342,16.55978 C83.10302,16.05018 83.10302,15.22698 82.59342,14.72718 L68.33442,0.45838 C68.07962,0.21338 67.74642,0.07618 67.39362,0.08598" id="Fill-7"></path>
            <polygon id="Fill-8" points="51.8616 22.1252 54.4586 22.1252 54.4586 9.1598 51.8616 9.1598"></polygon>
            <polygon id="Fill-9" points="46.6774 22.1252 49.2744 22.1252 49.2744 9.1598 46.6774 9.1598"></polygon>
        </g>
    </g>
</svg>