<?xml version="1.0" encoding="UTF-8"?>
<svg width="105px" height="105px" viewBox="0 0 105 105" version="1.1" xmlns="http://www.w3.org/2000/svg" xmlns:xlink="http://www.w3.org/1999/xlink">
    <!-- Generator: Sketch 50.2 (55047) - http://www.bohemiancoding.com/sketch -->
    <title>atome / icone / bordure</title>
    <desc>Created with Sketch.</desc>
    <defs>
        <path d="M28.7395521,11.2600451 L28.5574258,11.2609615 L28.1170606,11.6467644 L18.3764724,18.0917806 C18.0113136,18.3327929 17.6697134,18.5994643 17.3480475,18.8862963 C17.3480475,18.8862963 10.1454488,22.526223 16.8687199,34.3376568 C17.4187234,35.4639081 18.1907216,36.7028761 18.9273819,38.0188214 L17.9324828,41.6165938 C17.6488731,42.6392923 18.2396511,43.6995629 19.25086,43.9854786 C19.420301,44.0340477 19.5942724,44.0569576 19.7619011,44.0569576 C20.5710495,44.0569576 21.3104281,43.5291132 21.5677609,42.7208515 C22.9015419,45.0879036 23.9707413,46.9683491 24.19183,47.3138305 L39.5312177,71.017341 C40.8568438,73.0636543 42.9327218,74.4300014 45.3828195,74.8607077 C45.9074521,74.9532638 46.4429579,75 46.9775576,75 C48.6239436,75 50.2404282,74.5628789 51.6820352,73.7298745 L64.7951322,65.0781757 C66.8628552,63.7099958 68.284528,61.5995348 68.8000996,59.1307627 C69.3075163,56.6693219 68.8417803,54.159312 67.4844407,52.0616805 L52.3280854,28.6266742 C51.7753637,27.7725927 50.5575636,26.0809249 49.1277359,24.1335824 L49.5835048,24.1995629 C49.6741149,24.2133089 49.7656311,24.2188073 49.8535229,24.2188073 C50.7840889,24.2188073 51.5986739,23.526928 51.733683,22.5674609 C51.8813775,21.5163542 51.1592148,20.5431411 50.1208228,20.3928521 L46.4085261,19.858593 C46.2535828,19.8356831 46.1013578,19.8384323 45.9518511,19.854011 C43.615016,16.7300155 41.5237343,13.9679966 41.3370775,13.7233188 C39.5094713,11.3920062 36.5981681,10 33.5473252,10 C31.8320756,10 30.1820653,10.4343719 28.7395521,11.2600451 Z M46.0324941,71.0741576 C44.6343799,70.827647 43.4564483,70.0597068 42.7134453,68.9123784 L27.3758698,45.2079515 C26.9327863,44.517905 21.7643849,35.2907091 18.4226835,29.3002256 C16.994668,26.5794445 17.9071119,22.995418 20.4577869,21.3092486 L29.839559,15.1006626 L30.3152621,14.7881714 C31.2512647,14.1705202 32.3693936,13.8442831 33.5464191,13.8442831 C35.4474195,13.8442831 37.2451243,14.6910334 38.3387885,16.0857888 C38.4303048,16.2040039 47.42789,28.0768363 49.1485762,30.7316368 L64.3031192,54.1648104 C65.1023005,55.4046948 65.3786614,56.889257 65.0787419,58.340829 C64.7742919,59.8033977 63.9325238,61.0542789 62.7138177,61.8625405 L50.1008886,70.2026646 C49.1567311,70.8267306 48.0603486,71.1557169 46.9675905,71.1557169 C46.6549856,71.1557169 46.3414746,71.128225 46.0324941,71.0741576 Z" id="path-1"></path>
        <path d="M45.4528549,19.0532578 C45.2817452,19.0863144 41.18145,19.862226 36.6384424,22.8648659 L36.5578669,22.9208784 C32.1388912,25.8647511 29.8357004,29.2062211 29.5849206,29.5808624 C28.8651735,30.6634656 28.8054209,32.0619428 29.4292017,33.2299422 L33.638138,41.1295482 C34.1650472,42.1083904 35.116562,42.7933963 36.1884872,42.9605157 C36.3614076,42.9871447 36.5361387,43 36.7054377,43 C37.3600002,43 37.9937398,42.8099246 38.4952994,42.4775223 C38.7433632,42.3241765 38.9687934,42.1331828 39.1806435,41.899032 C39.2992433,41.7686422 42.1094258,38.7017255 45.4175465,36.5034625 C48.7836092,34.2785706 52.676581,32.9278418 52.7236588,32.9113135 C53.7883413,32.5458545 54.5959066,31.6625091 54.8856162,30.5523587 C55.1644616,29.4881203 54.9263566,28.328385 54.2491605,27.4459578 L48.807148,20.3718483 C48.1435322,19.5077859 47.1005778,19 46.0422327,19 C45.8457734,19 45.6484088,19.0174465 45.4528549,19.0532578 Z M32.857733,31.5615029 C33.3565766,30.8764969 35.3302228,28.3394039 38.6772732,26.1181849 L38.7515113,26.0667636 C42.1483555,23.8308528 45.2419101,23.0411677 45.9227275,22.8813942 L50.9781589,29.4550637 C49.6762766,29.9444848 46.339185,31.2942954 43.3388806,33.2776906 C40.3087,35.2913877 37.7330012,37.8688832 36.7615689,38.8881279 L32.857733,31.5615029 Z" id="path-3"></path>
        <path d="M47.0453994,47.0699223 C46.1230445,47.2536925 41.3117662,48.3034235 37.2038532,50.8923418 C32.6987894,53.7367455 29.636645,58.0773073 29.6190145,58.103304 C28.7096504,59.3726629 28.810794,61.0983096 29.8658419,62.299539 L33.7890983,66.7656023 C34.4729772,67.5499872 35.4677102,68 36.5162626,68 C36.7231893,68 36.930116,67.9820712 37.1537454,67.9435243 C37.5991482,67.8610518 41.5910709,67.068599 46.0219009,64.3183215 L46.4812225,64.1327585 L46.5944291,63.9525741 C50.9018454,61.1350636 53.1520575,58.0235209 53.3998129,57.6703236 C54.1087457,56.6645181 54.1950425,55.3467515 53.6299376,54.2333732 L50.9668,48.9658926 C50.3636504,47.7700418 49.1007478,47 47.7478368,47 C47.5279191,47 47.3061457,47.0206181 47.0453994,47.0699223 Z M32.9808778,60.0288568 C33.5960904,59.2157859 36.0829228,56.0925894 39.3325075,54.0397422 C42.5403356,52.0182703 46.404205,51.0635619 47.5631802,50.8089729 L50.0509405,55.726842 C49.5489344,56.3848288 47.5455497,58.8446598 44.1474974,61.0077691 L44.0472818,61.0705199 C40.6065451,63.2372151 37.4627436,64.0242893 36.6415321,64.2035772 L32.9808778,60.0288568 Z" id="path-5"></path>
    </defs>
    <g id="atome-/-icone-/-bordure" stroke="none" stroke-width="1" fill="none" fill-rule="evenodd">
        <g id="Group-2" transform="translate(14.000000, 10.000000)">
            <mask id="mask-2" fill="white">
                <use xlink:href="#path-1"></use>
            </mask>
            <g id="Clip-2" transform="translate(41.500000, 42.500000) rotate(33.000000) translate(-41.500000, -42.500000) "></g>
            <polygon id="Fill-1" fill="#000000" mask="url(#mask-2)" transform="translate(41.500000, 42.000000) rotate(33.000000) translate(-41.500000, -42.000000) " points="9 79 74 79 74 5 9 5"></polygon>
            <mask id="mask-4" fill="white">
                <use xlink:href="#path-3"></use>
            </mask>
            <g id="Clip-5" transform="translate(42.000000, 31.000000) rotate(33.000000) translate(-42.000000, -31.000000) "></g>
            <polygon id="Fill-4" fill="#000000" mask="url(#mask-4)" transform="translate(41.500000, 31.500000) rotate(33.000000) translate(-41.500000, -31.500000) " points="24 48 59 48 59 15 24 15"></polygon>
            <mask id="mask-6" fill="white">
                <use xlink:href="#path-5"></use>
            </mask>
            <g id="Clip-8" transform="translate(41.500000, 57.500000) rotate(33.000000) translate(-41.500000, -57.500000) "></g>
            <polygon id="Fill-7" fill="#000000" mask="url(#mask-6)" transform="translate(42.000000, 57.000000) rotate(33.000000) translate(-42.000000, -57.000000) " points="25 72 59 72 59 42 25 42"></polygon>
        </g>
        <g id="Group" transform="translate(68.000000, 9.000000)" fill="#000000" fill-rule="nonzero">
            <path d="M2.101,12.646 C3.26,12.646 4.199,11.707 4.199,10.548 L4.199,2.145 C4.199,0.986 3.26,0.047 2.101,0.047 C0.942,0.047 0.003,0.986 0.003,2.145 L0.003,10.548 C0.003,11.707 0.942,12.646 2.101,12.646 Z" id="Shape"></path>
            <path d="M2.098,68.952 C3.257,68.952 4.196,68.013 4.196,66.854 L4.196,48.098 C4.196,46.939 3.257,46 2.098,46 C0.939,46 0,46.939 0,48.098 L0,66.854 C0,68.012 0.939,68.952 2.098,68.952 Z" id="Shape"></path>
            <path d="M2.098,40.952 C3.257,40.952 4.196,40.013 4.196,38.854 L4.196,20.098 C4.196,18.939 3.257,18 2.098,18 C0.939,18 0,18.939 0,20.098 L0,38.854 C0,40.012 0.939,40.952 2.098,40.952 Z" id="Shape-Copy"></path>
            <path d="M0.003,84.595 C0.003,85.754 0.942,86.693 2.101,86.693 C3.26,86.693 4.199,85.754 4.199,84.595 L4.199,76.192 C4.199,75.033 3.26,74.094 2.101,74.094 C0.942,74.094 0.003,75.033 0.003,76.192 L0.003,84.595 Z" id="Shape"></path>
        </g>
        <circle id="Oval-2" fill="#000000" cx="83" cy="16" r="9"></circle>
        <circle id="Oval-2-Copy" fill="#000000" cx="85.5" cy="49.5" r="5.5"></circle>
        <circle id="Oval-2-Copy-2" fill="#000000" cx="86" cy="56" r="9"></circle>
        <circle id="Oval-2-Copy-3" fill="#000000" cx="82" cy="80" r="5"></circle>
    </g>
</svg>