<?xml version="1.0" encoding="UTF-8"?>
<svg width="105px" height="105px" viewBox="0 0 105 105" version="1.1" xmlns="http://www.w3.org/2000/svg" xmlns:xlink="http://www.w3.org/1999/xlink">
    <!-- Generator: Sketch 50.2 (55047) - http://www.bohemiancoding.com/sketch -->
    <title>atome / icone / frein</title>
    <desc>Created with Sketch.</desc>
    <defs></defs>
    <g id="atome-/-icone-/-frein" stroke="none" stroke-width="1" fill="none" fill-rule="evenodd">
        <g id="Group" transform="translate(16.000000, 24.000000)" fill="#000000" fill-rule="nonzero">
            <path d="M36.4499986,0.379565 C20.356131,0.379565 7.27968505,13.45616 7.27968505,29.549825 C7.27968505,45.643805 20.356131,58.72019 36.4499986,58.72019 C52.5438663,58.72019 65.6203122,45.643805 65.6203122,29.549825 C65.6203122,13.45616 52.5438663,0.379565 36.4499986,0.379565 Z M36.4499986,3.157655 C51.0424534,3.157655 62.8421865,14.95745 62.8421865,29.549825 C62.8421865,44.142515 51.0424534,55.9421 36.4499986,55.9421 C21.8575438,55.9421 10.0578108,44.142515 10.0578108,29.549825 C10.0578108,14.95745 21.8575438,3.157655 36.4499986,3.157655 Z" id="Shape"></path>
            <path d="M13.8126202,1.774175 C13.5000883,1.78935196 13.2018324,1.90959406 12.9661627,2.115425 C4.95792505,8.972975 0.344273665,18.992285 0.33437458,29.53859 C0.324484525,40.084895 4.9221925,50.110925 12.9173283,56.983385 C13.2888687,57.3390015 13.8264777,57.4602534 14.314695,57.298546 C14.8029123,57.1368386 15.1618427,56.7186348 15.247636,56.2115402 C15.3334292,55.7044456 15.1320456,55.1914446 14.7241945,54.878135 C7.3427323,48.533195 3.1033552,39.28175 3.11249965,29.544155 C3.1216399,19.806245 7.37947285,10.55732 14.773029,4.22624 C15.2305362,3.84302394 15.3921634,3.2104195 15.1745462,2.65471254 C14.956929,2.09900559 14.4086999,1.74438394 13.8126255,1.773755 L13.8126202,1.774175 Z" id="Shape"></path>
            <path d="M59.0873791,1.752545 C59.399911,1.76772196 59.6981669,1.88796406 59.9338366,2.093795 C67.9420732,8.951345 72.5557249,18.970655 72.5656233,29.51696 C72.5756245,40.063265 67.9778058,50.08919 59.98267,56.961755 C59.6111291,57.3173688 59.0735216,57.4386189 58.5853059,57.2769114 C58.0970903,57.1152039 57.7381609,56.6970016 57.652367,56.1899086 C57.566573,55.6828157 57.7679543,55.1698156 58.1758027,54.856505 C65.557267,48.511565 69.7966441,39.26012 69.7874986,29.522525 C69.778331,19.784615 65.5205264,10.53569 58.1269682,4.20461 C57.6694591,3.82139281 57.5078321,3.1887854 57.7254522,2.63307719 C57.9430722,2.07736898 58.4913058,1.72274904 59.0873822,1.752125 L59.0873791,1.752545 Z" id="Shape"></path>
            <path d="M32.2828111,8.71394 C31.5156916,8.71401653 30.8938347,9.33586543 30.8937483,10.102985 L30.8937483,23.993645 C30.8943249,24.0466581 30.8979358,24.0995947 30.9045633,24.152195 L32.2936261,36.653705 C32.3740815,37.3542871 32.966668,37.8834443 33.671854,37.88441 L39.2281044,37.88441 C39.9335699,37.8833865 40.5262548,37.3537737 40.6063155,36.652865 L41.9953773,24.151355 C42.0019648,24.0991024 42.0055757,24.0465176 42.0061923,23.993855 L42.0061923,10.103195 C42.0061058,9.33607543 41.3842489,8.71422653 40.6171294,8.71415 L32.2828111,8.71394 Z M33.671874,11.49203 L39.2281243,11.49203 L39.2281243,23.91773 L37.9855627,35.10611 L34.9144345,35.10611 L33.671874,23.91773 L33.671874,11.49203 Z" id="Shape"></path>
            <path d="M32.2828111,40.662395 C31.5156916,40.6624715 30.8938347,41.2843204 30.8937483,42.05144 L30.8937483,48.99677 C30.8938347,49.7638896 31.5156916,50.3857385 32.2828111,50.385815 L40.6171861,50.385815 C41.3843056,50.3857385 42.0061625,49.7638896 42.006249,48.99677 L42.006249,42.05144 C42.0061625,41.2843204 41.3843056,40.6624715 40.6171861,40.662395 L32.2828111,40.662395 Z M33.671874,43.440485 L39.2281243,43.440485 L39.2281243,47.607725 L33.671874,47.607725 L33.671874,43.440485 Z" id="Shape"></path>
        </g>
    </g>
</svg>