<?xml version="1.0" encoding="UTF-8"?>
<svg width="105px" height="105px" viewBox="0 0 105 105" version="1.1" xmlns="http://www.w3.org/2000/svg" xmlns:xlink="http://www.w3.org/1999/xlink">
    <!-- Generator: Sketch 50.2 (55047) - http://www.bohemiancoding.com/sketch -->
    <title>atome / icone / virage</title>
    <desc>Created with Sketch.</desc>
    <defs>
        <path d="M16.297,1.445 L16.096,1.446 L15.61,1.867 L4.86,8.9 C4.457,9.163 4.08,9.454 3.725,9.767 C3.725,9.767 -4.224,13.739 3.196,26.628 C3.803,27.857 4.655,29.209 5.468,30.645 L4.37,34.571 C4.057,35.687 4.709,36.844 5.825,37.156 C6.012,37.209 6.204,37.234 6.389,37.234 C7.282,37.234 8.098,36.658 8.382,35.776 C9.854,38.359 11.034,40.411 11.278,40.788 L28.207,66.654 C29.67,68.887 31.961,70.378 34.665,70.848 C35.244,70.949 35.835,71 36.425,71 C38.242,71 40.026,70.523 41.617,69.614 L56.089,60.173 C58.371,58.68 59.94,56.377 60.509,53.683 C61.069,50.997 60.555,48.258 59.057,45.969 L42.33,20.396 C41.72,19.464 40.376,17.618 38.798,15.493 L39.301,15.565 C39.401,15.58 39.502,15.586 39.599,15.586 C40.626,15.586 41.525,14.831 41.674,13.784 C41.837,12.637 41.04,11.575 39.894,11.411 L35.797,10.828 C35.626,10.803 35.458,10.806 35.293,10.823 C32.714,7.414 30.406,4.4 30.2,4.133 C28.183,1.589 24.97,0.07 21.603,0.07 C19.71,0.07 17.889,0.544 16.297,1.445 Z M35.382,66.716 C33.839,66.447 32.539,65.609 31.719,64.357 L14.792,38.49 C14.303,37.737 8.599,27.668 4.911,21.131 C3.335,18.162 4.342,14.251 7.157,12.411 L17.511,5.636 L18.036,5.295 C19.069,4.621 20.303,4.265 21.602,4.265 C23.7,4.265 25.684,5.189 26.891,6.711 C26.992,6.84 36.922,19.796 38.821,22.693 L55.546,48.264 C56.428,49.617 56.733,51.237 56.402,52.821 C56.066,54.417 55.137,55.782 53.792,56.664 L39.872,65.765 C38.83,66.446 37.62,66.805 36.414,66.805 C36.069,66.805 35.723,66.775 35.382,66.716 Z" id="path-1"></path>
        <path d="M18.173,0.997 C17.984,1.033 13.455,1.878 8.437,5.148 L8.348,5.209 C3.467,8.415 0.923,12.054 0.646,12.462 C-0.149,13.641 -0.215,15.164 0.474,16.436 L5.123,25.039 C5.705,26.105 6.756,26.851 7.94,27.033 C8.131,27.062 8.324,27.076 8.511,27.076 C9.234,27.076 9.934,26.869 10.488,26.507 C10.762,26.34 11.011,26.132 11.245,25.877 C11.376,25.735 14.48,22.395 18.134,20.001 C21.852,17.578 26.152,16.107 26.204,16.089 C27.38,15.691 28.272,14.729 28.592,13.52 C28.9,12.361 28.637,11.098 27.889,10.137 L21.878,2.433 C21.145,1.492 19.993,0.939 18.824,0.939 C18.607,0.939 18.389,0.958 18.173,0.997 Z M4.261,14.619 C4.812,13.873 6.992,11.11 10.689,8.691 L10.771,8.635 C14.523,6.2 17.94,5.34 18.692,5.166 L24.276,12.325 C22.838,12.858 19.152,14.328 15.838,16.488 C12.491,18.681 9.646,21.488 8.573,22.598 L4.261,14.619 Z" id="path-3"></path>
        <path d="M19.81,0.621 C18.816,0.826 13.631,1.997 9.204,4.885 C4.349,8.058 1.049,12.9 1.03,12.929 C0.05,14.345 0.159,16.27 1.296,17.61 L5.524,22.592 C6.261,23.467 7.333,23.969 8.463,23.969 C8.686,23.969 8.909,23.949 9.15,23.906 C9.63,23.814 13.932,22.93 18.707,19.862 L19.202,19.655 L19.324,19.454 C23.966,16.311 26.391,12.84 26.658,12.446 C27.422,11.324 27.515,9.854 26.906,8.612 L24.036,2.736 C23.386,1.402 22.025,0.543 20.567,0.543 C20.33,0.543 20.091,0.566 19.81,0.621 Z M4.653,15.077 C5.316,14.17 7.996,10.686 11.498,8.396 C14.955,6.141 19.119,5.076 20.368,4.792 L23.049,10.278 C22.508,11.012 20.349,13.756 16.687,16.169 L16.579,16.239 C12.871,18.656 9.483,19.534 8.598,19.734 L4.653,15.077 Z" id="path-5"></path>
    </defs>
    <g id="atome-/-icone-/-virage" stroke="none" stroke-width="1" fill="none" fill-rule="evenodd">
        <g id="Group" transform="translate(37.000000, 9.000000)" fill="#000000" fill-rule="nonzero">
            <path d="M2.101,12.646 C3.26,12.646 4.199,11.707 4.199,10.548 L4.199,2.145 C4.199,0.986 3.26,0.047 2.101,0.047 C0.942,0.047 0.003,0.986 0.003,2.145 L0.003,10.548 C0.003,11.707 0.942,12.646 2.101,12.646 Z" id="Shape"></path>
            <path d="M2.098,68.952 C3.257,68.952 4.196,68.013 4.196,66.854 L4.196,48.098 C4.196,46.939 3.257,46 2.098,46 C0.939,46 0,46.939 0,48.098 L0,66.854 C0,68.012 0.939,68.952 2.098,68.952 Z" id="Shape"></path>
            <path d="M2.098,40.952 C3.257,40.952 4.196,40.013 4.196,38.854 L4.196,20.098 C4.196,18.939 3.257,18 2.098,18 C0.939,18 0,18.939 0,20.098 L0,38.854 C0,40.012 0.939,40.952 2.098,40.952 Z" id="Shape-Copy"></path>
            <path d="M0.003,84.595 C0.003,85.754 0.942,86.693 2.101,86.693 C3.26,86.693 4.199,85.754 4.199,84.595 L4.199,76.192 C4.199,75.033 3.26,74.094 2.101,74.094 C0.942,74.094 0.003,75.033 0.003,76.192 L0.003,84.595 Z" id="Shape"></path>
        </g>
        <g id="Group-10" transform="translate(58.022601, 49.022601) rotate(-45.000000) translate(-58.022601, -49.022601) translate(27.522601, 13.022601)">
            <g id="Group-3" transform="translate(0.000000, 0.463320)">
                <mask id="mask-2" fill="white">
                    <use xlink:href="#path-1"></use>
                </mask>
                <g id="Clip-2"></g>
                <polygon id="Fill-1" fill="#000000" mask="url(#mask-2)" points="-6 76 65.729 76 65.729 -4.93 -6 -4.93"></polygon>
            </g>
            <g id="Group-6" transform="translate(9.000000, 11.463320)">
                <mask id="mask-4" fill="white">
                    <use xlink:href="#path-3"></use>
                </mask>
                <g id="Clip-5"></g>
                <polygon id="Fill-4" fill="#000000" mask="url(#mask-4)" points="-5 32.076 33.719 32.076 33.719 -4.061 -5 -4.061"></polygon>
            </g>
            <g id="Group-9" transform="translate(25.000000, 37.463320)">
                <mask id="mask-6" fill="white">
                    <use xlink:href="#path-5"></use>
                </mask>
                <g id="Clip-8"></g>
                <polygon id="Fill-7" fill="#000000" mask="url(#mask-6)" points="-4.637 28.969 32.305 28.969 32.305 -4.457 -4.637 -4.457"></polygon>
            </g>
        </g>
    </g>
</svg>