<?xml version="1.0" encoding="UTF-8"?>
<svg width="105px" height="105px" viewBox="0 0 105 105" version="1.1" xmlns="http://www.w3.org/2000/svg" xmlns:xlink="http://www.w3.org/1999/xlink">
    <!-- Generator: Sketch 50.2 (55047) - http://www.bohemiancoding.com/sketch -->
    <title>atome / icone / cligno copy</title>
    <desc>Created with Sketch.</desc>
    <defs>
        <polygon id="path-1" points="0.000198438844 0 31.003 0 31.003 26.9999 0.000198438844 26.9999"></polygon>
    </defs>
    <g id="atome-/-icone-/-cligno-copy" stroke="none" stroke-width="1" fill="none" fill-rule="evenodd">
        <g id="Group-2" transform="translate(11.000000, 23.000000)">
            <g id="Group" transform="translate(0.000000, 28.000000)" fill="#000000">
                <path d="M15.5232,0.08598 C15.19,0.08598 14.8764,0.22318 14.6412,0.45838 L0.3822,14.72718 C-0.1274,15.22698 -0.1274,16.05018 0.3822,16.55978 L14.6412,30.81878 C15.1508,31.32838 15.9642,31.32838 16.4738,30.81878 C16.7188,30.57378 16.856,30.25038 16.856,29.89758 L16.856,22.12618 L29.8116,22.12618 C30.5368,22.13598 31.1248,21.56758 31.1346,20.85218 C31.1444,20.12698 30.576,19.53898 29.8606,19.52918 L29.8116,19.52918 L15.5526,19.52918 C14.847,19.52918 14.259,20.10738 14.259,20.82278 L14.259,26.77138 L3.1262,15.63858 L14.259,4.51558 L14.2492,10.45438 C14.2492,11.16978 14.8274,11.74798 15.5428,11.74798 L29.8018,11.74798 C30.5172,11.75778 31.1052,11.18938 31.115,10.47398 C31.1248,9.75858 30.5564,9.17058 29.841,9.16078 L29.8018,9.16078 L16.8462,9.16078 L16.856,1.37958 C16.856,0.66418 16.2778,0.08598 15.5526,0.08598 L15.5232,0.08598 Z" id="Fill-1"></path>
                <polygon id="Fill-4" points="28.5278 22.1252 31.115 22.1252 31.115 9.1598 28.5278 9.1598"></polygon>
                <polygon id="Fill-6" points="33.7022 22.1252 36.2992 22.1252 36.2992 9.1598 33.7022 9.1598"></polygon>
                <path d="M67.39362,0.08598 C66.68802,0.09578 66.11962,0.67398 66.11962,1.37958 L66.12942,9.16078 L53.17382,9.16078 C52.45842,9.14118 51.87042,9.70958 51.86062,10.43478 C51.84102,11.15018 52.41922,11.73818 53.13462,11.74798 L53.17382,11.74798 L67.42302,11.74798 C68.13842,11.74798 68.72642,11.16978 68.72642,10.45438 L68.71662,4.51558 L79.84942,15.63858 L68.71662,26.77138 L68.71662,20.82278 C68.71662,20.10738 68.12862,19.52918 67.41322,19.52918 L53.15422,19.52918 C52.43882,19.51938 51.85082,20.08778 51.83122,20.80318 C51.82142,21.51858 52.39962,22.11638 53.11502,22.12618 L53.15422,22.12618 L66.11962,22.12618 L66.11962,29.89758 C66.11962,30.62278 66.70762,31.20098 67.41322,31.20098 C67.75622,31.20098 68.08942,31.06378 68.33442,30.81878 L82.59342,16.55978 C83.10302,16.05018 83.10302,15.22698 82.59342,14.72718 L68.33442,0.45838 C68.07962,0.21338 67.74642,0.07618 67.39362,0.08598" id="Fill-7"></path>
                <polygon id="Fill-8" points="51.8616 22.1252 54.4586 22.1252 54.4586 9.1598 51.8616 9.1598"></polygon>
                <polygon id="Fill-9" points="46.6774 22.1252 49.2744 22.1252 49.2744 9.1598 46.6774 9.1598"></polygon>
            </g>
            <g id="Group" transform="translate(26.000000, 0.000000)">
                <g id="Group-3">
                    <mask id="mask-2" fill="white">
                        <use xlink:href="#path-1"></use>
                    </mask>
                    <g id="Clip-2"></g>
                    <path d="M27.8863,24.7559 L3.1173,24.7559 C2.4633,24.7559 2.1023,24.1739 2.4033,23.6609 L14.7873,2.6139 C14.9443,2.3499 15.2093,2.2019 15.5013,2.2019 C15.7933,2.2019 16.0593,2.3499 16.2153,2.6139 L28.5993,23.6609 C28.9013,24.1729 28.5393,24.7559 27.8863,24.7559 M30.6063,22.5469 L18.2223,1.4999 C17.6583,0.5429 16.6223,-0.0001 15.5013,-0.0001 C14.3803,-0.0001 13.3443,0.5429 12.7813,1.4999 L0.3973,22.5469 C-0.7647,24.5219 0.7683,26.9999 3.1173,26.9999 L27.8863,26.9999 C30.2343,26.9999 31.7683,24.5219 30.6063,22.5469" id="Fill-1" fill="#000000" mask="url(#mask-2)"></path>
                </g>
                <path d="M14.7857,9.5 C14.6287,9.5 14.5017,9.67 14.5017,9.879 L14.5017,13.663 C14.5017,13.678 14.5027,13.692 14.5037,13.707 L14.7877,17.113 C14.8047,17.304 14.9257,17.448 15.0687,17.448 L16.2047,17.448 C16.3487,17.448 16.4707,17.304 16.4867,17.113 L16.7697,13.706 C16.7717,13.692 16.7717,13.678 16.7727,13.664 L16.7727,9.879 C16.7727,9.67 16.6447,9.5 16.4887,9.5 L14.7857,9.5 Z" id="Fill-4" fill="#000000"></path>
                <path d="M14.7857,18.5 C14.6287,18.5 14.5017,18.67 14.5017,18.879 L14.5017,20.771 C14.5017,20.98 14.6287,21.149 14.7857,21.149 L16.4887,21.149 C16.6447,21.149 16.7727,20.98 16.7727,20.771 L16.7727,18.879 C16.7727,18.67 16.6447,18.5 16.4887,18.5 L14.7857,18.5 Z" id="Fill-6" fill="#000000"></path>
            </g>
        </g>
    </g>
</svg>