<?xml version="1.0" encoding="UTF-8"?>
<svg width="105px" height="105px" viewBox="0 0 105 105" version="1.1" xmlns="http://www.w3.org/2000/svg" xmlns:xlink="http://www.w3.org/1999/xlink">
    <!-- Generator: Sketch 50.2 (55047) - http://www.bohemiancoding.com/sketch -->
    <title>atome / icone / distance</title>
    <desc>Created with Sketch.</desc>
    <defs>
        <path d="M45.5862718,57.3663236 L45.4691959,57.3669061 L45.1861168,57.6121248 L38.9245936,61.7086171 C38.6898593,61.861806 38.4702692,62.0313039 38.2634933,62.2136162 C38.2634933,62.2136162 33.633461,64.5271762 37.9553681,72.0345968 C38.3089257,72.7504491 38.8051879,73.5379448 39.2787337,74.3743678 L38.6391847,76.6611343 C38.4568724,77.3111678 38.8366411,77.9850824 39.4866746,78.1668122 C39.5955959,78.197683 39.7074297,78.2122447 39.8151861,78.2122447 C40.3353294,78.2122447 40.8106227,77.8767435 40.9760434,77.3630074 C41.8334352,78.8675203 42.5207466,80.0627432 42.6628686,80.2823333 L52.523457,95.3484317 C53.3756066,96.6490811 54.7100391,97.5175398 56.2850306,97.7912994 C56.6222791,97.8501286 56.9665173,97.8798344 57.310173,97.8798344 C58.368516,97.8798344 59.4076376,97.6019975 60.334343,97.0725348 L68.7638093,91.5734613 C70.0929996,90.7038377 71.0068908,89.3624156 71.3383147,87.7932488 C71.6644963,86.2287417 71.3651081,84.6333638 70.4925722,83.3000962 L60.7496422,68.4046608 C60.3943372,67.8618013 59.6115011,66.7865667 58.6923678,65.5488238 L58.9853488,65.5907614 C59.0435956,65.5994984 59.1024248,65.6029932 59.1589241,65.6029932 C59.757118,65.6029932 60.280756,65.1632304 60.3675437,64.5533872 C60.4624858,63.8852973 59.9982594,63.266717 59.3307519,63.1711924 L56.9443835,62.831614 C56.8447816,62.8170523 56.7469271,62.8187997 56.65082,62.8287016 C55.1486369,60.8430707 53.8043025,59.0875144 53.6843142,58.9319956 C52.5094777,57.4501989 50.6380104,56.5654311 48.6768431,56.5654311 C47.5742326,56.5654311 46.5135597,56.8415206 45.5862718,57.3663236 Z M56.7026596,95.3845447 C55.8039126,95.227861 55.0467052,94.7397534 54.569082,94.0105044 L44.7096586,78.9438235 C44.4248321,78.5052257 41.1024388,72.6403628 38.9542995,68.8327742 C38.0363311,67.1034289 38.6228756,64.8253994 40.262521,63.7536597 L46.2933871,59.8074439 L46.5991824,59.6088226 C47.2008711,59.2162396 47.9196357,59.0088813 48.6762607,59.0088813 C49.898277,59.0088813 51.053892,59.5470811 51.75693,60.4335962 C51.8157592,60.5087345 57.5996592,68.0551804 58.7057645,69.7425881 L68.4475296,84.6368586 C68.9612657,85.4249368 69.1389182,86.3685338 68.9461216,87.291162 C68.7504126,88.2207797 68.2093005,89.0158475 67.425882,89.5295837 L59.3179376,94.8306183 C58.7110067,95.2272785 58.0062214,95.4363842 57.3037658,95.4363842 C57.1028146,95.4363842 56.9012809,95.4189102 56.7026596,95.3845447 Z" id="path-1"></path>
        <path d="M55.9205975,62.274579 C55.8105112,62.2955479 53.1725169,62.7877327 50.2496961,64.6924007 L50.1978566,64.7279312 C47.3548338,66.5953212 45.8730371,68.7149196 45.7116937,68.9525663 C45.2486322,69.6392952 45.2101893,70.5263928 45.6115093,71.2672912 L48.3193996,76.2782571 C48.6583956,76.8991672 49.2705687,77.3336878 49.9602099,77.4396968 C50.0714612,77.4565884 50.1838773,77.4647429 50.2927987,77.4647429 C50.7139226,77.4647429 51.1216496,77.3441722 51.4443365,77.133319 C51.6039325,77.036047 51.7489669,76.9148938 51.8852642,76.7663647 C51.9615674,76.6836543 53.7695458,74.7382136 55.8978812,73.343787 C58.0634945,71.9324688 60.5681038,71.0756595 60.5983921,71.065175 C61.2833736,70.8333531 61.8029344,70.2730196 61.9893239,69.5688166 C62.1687239,68.8937371 62.015535,68.1580809 61.5798494,67.5983299 L58.0786387,63.111002 C57.6516902,62.5629003 56.9806879,62.2407959 56.2997837,62.2407959 C56.1733883,62.2407959 56.0464104,62.2518628 55.9205975,62.274579 Z M47.8173128,70.2089482 C48.1382523,69.7744276 49.4080309,68.1650705 51.5614124,66.7560822 L51.6091747,66.723464 C53.7945919,65.3051562 55.7848826,64.8042344 56.222898,64.7028851 L59.4753952,68.8727683 C58.6378073,69.1832233 56.4908329,70.0394502 54.5605364,71.2975795 C52.6110184,72.5749302 50.9538991,74.2099158 50.3289117,74.8564545 L47.8173128,70.2089482 Z" id="path-3"></path>
        <path d="M57.0469682,79.8302245 C56.4679957,79.9496303 53.4479029,80.6316995 50.8693203,82.313865 C48.0414417,84.1620336 46.1192997,86.9823401 46.1082329,86.9992317 C45.5374149,87.8240053 45.6009039,88.9452548 46.2631692,89.725761 L48.7258408,92.6276129 C49.1551192,93.1372718 49.7795241,93.4296703 50.4377121,93.4296703 C50.5676023,93.4296703 50.6974925,93.418021 50.8378671,93.3929749 C51.1174514,93.3393879 53.6232256,92.8244868 56.4045068,91.0374773 L56.6928281,90.9169065 L56.7638891,90.7998306 C59.4677021,88.969136 60.8801853,86.9473921 61.035704,86.7179 C61.480709,86.0643717 61.5348785,85.2081448 61.1801559,84.4847205 L59.5084748,81.0621428 C59.1298711,80.2851315 58.3371332,79.7847921 57.4878959,79.7847921 C57.3498511,79.7847921 57.2106415,79.7981888 57.0469682,79.8302245 Z M48.2185118,88.2503714 C48.6046876,87.7220736 50.1656999,85.6927576 52.2055002,84.3589076 C54.2190896,83.0454439 56.6444833,82.4251162 57.3719849,82.2596955 L58.9335796,85.455111 C58.6184649,85.8826419 57.360918,87.4809321 55.2279229,88.8864256 L55.1650164,88.9271983 C53.0052278,90.3350217 51.0318287,90.846428 50.5163452,90.9629214 L48.2185118,88.2503714 Z" id="path-5"></path>
        <path d="M45.5862718,10.3663236 L45.4691959,10.3669061 L45.1861168,10.6121248 L38.9245936,14.7086171 C38.6898593,14.861806 38.4702692,15.0313039 38.2634933,15.2136162 C38.2634933,15.2136162 33.633461,17.5271762 37.9553681,25.0345968 C38.3089257,25.7504491 38.8051879,26.5379448 39.2787337,27.3743678 L38.6391847,29.6611343 C38.4568724,30.3111678 38.8366411,30.9850824 39.4866746,31.1668122 C39.5955959,31.197683 39.7074297,31.2122447 39.8151861,31.2122447 C40.3353294,31.2122447 40.8106227,30.8767435 40.9760434,30.3630074 C41.8334352,31.8675203 42.5207466,33.0627432 42.6628686,33.2823333 L52.523457,48.3484317 C53.3756066,49.6490811 54.7100391,50.5175398 56.2850306,50.7912994 C56.6222791,50.8501286 56.9665173,50.8798344 57.310173,50.8798344 C58.368516,50.8798344 59.4076376,50.6019975 60.334343,50.0725348 L68.7638093,44.5734613 C70.0929996,43.7038377 71.0068908,42.3624156 71.3383147,40.7932488 C71.6644963,39.2287417 71.3651081,37.6333638 70.4925722,36.3000962 L60.7496422,21.4046608 C60.3943372,20.8618013 59.6115011,19.7865667 58.6923678,18.5488238 L58.9853488,18.5907614 C59.0435956,18.5994984 59.1024248,18.6029932 59.1589241,18.6029932 C59.757118,18.6029932 60.280756,18.1632304 60.3675437,17.5533872 C60.4624858,16.8852973 59.9982594,16.266717 59.3307519,16.1711924 L56.9443835,15.831614 C56.8447816,15.8170523 56.7469271,15.8187997 56.65082,15.8287016 C55.1486369,13.8430707 53.8043025,12.0875144 53.6843142,11.9319956 C52.5094777,10.4501989 50.6380104,9.5654311 48.6768431,9.5654311 C47.5742326,9.5654311 46.5135597,9.84152059 45.5862718,10.3663236 Z M56.7026596,48.3845447 C55.8039126,48.227861 55.0467052,47.7397534 54.569082,47.0105044 L44.7096586,31.9438235 C44.4248321,31.5052257 41.1024388,25.6403628 38.9542995,21.8327742 C38.0363311,20.1034289 38.6228756,17.8253994 40.262521,16.7536597 L46.2933871,12.8074439 L46.5991824,12.6088226 C47.2008711,12.2162396 47.9196357,12.0088813 48.6762607,12.0088813 C49.898277,12.0088813 51.053892,12.5470811 51.75693,13.4335962 C51.8157592,13.5087345 57.5996592,21.0551804 58.7057645,22.7425881 L68.4475296,37.6368586 C68.9612657,38.4249368 69.1389182,39.3685338 68.9461216,40.291162 C68.7504126,41.2207797 68.2093005,42.0158475 67.425882,42.5295837 L59.3179376,47.8306183 C58.7110067,48.2272785 58.0062214,48.4363842 57.3037658,48.4363842 C57.1028146,48.4363842 56.9012809,48.4189102 56.7026596,48.3845447 Z" id="path-7"></path>
        <path d="M55.9205975,15.274579 C55.8105112,15.2955479 53.1725169,15.7877327 50.2496961,17.6924007 L50.1978566,17.7279312 C47.3548338,19.5953212 45.8730371,21.7149196 45.7116937,21.9525663 C45.2486322,22.6392952 45.2101893,23.5263928 45.6115093,24.2672912 L48.3193996,29.2782571 C48.6583956,29.8991672 49.2705687,30.3336878 49.9602099,30.4396968 C50.0714612,30.4565884 50.1838773,30.4647429 50.2927987,30.4647429 C50.7139226,30.4647429 51.1216496,30.3441722 51.4443365,30.133319 C51.6039325,30.036047 51.7489669,29.9148938 51.8852642,29.7663647 C51.9615674,29.6836543 53.7695458,27.7382136 55.8978812,26.343787 C58.0634945,24.9324688 60.5681038,24.0756595 60.5983921,24.065175 C61.2833736,23.8333531 61.8029344,23.2730196 61.9893239,22.5688166 C62.1687239,21.8937371 62.015535,21.1580809 61.5798494,20.5983299 L58.0786387,16.111002 C57.6516902,15.5629003 56.9806879,15.2407959 56.2997837,15.2407959 C56.1733883,15.2407959 56.0464104,15.2518628 55.9205975,15.274579 Z M47.8173128,23.2089482 C48.1382523,22.7744276 49.4080309,21.1650705 51.5614124,19.7560822 L51.6091747,19.723464 C53.7945919,18.3051562 55.7848826,17.8042344 56.222898,17.7028851 L59.4753952,21.8727683 C58.6378073,22.1832233 56.4908329,23.0394502 54.5605364,24.2975795 C52.6110184,25.5749302 50.9538991,27.2099158 50.3289117,27.8564545 L47.8173128,23.2089482 Z" id="path-9"></path>
        <path d="M57.0469682,32.8302245 C56.4679957,32.9496303 53.4479029,33.6316995 50.8693203,35.313865 C48.0414417,37.1620336 46.1192997,39.9823401 46.1082329,39.9992317 C45.5374149,40.8240053 45.6009039,41.9452548 46.2631692,42.725761 L48.7258408,45.6276129 C49.1551192,46.1372718 49.7795241,46.4296703 50.4377121,46.4296703 C50.5676023,46.4296703 50.6974925,46.418021 50.8378671,46.3929749 C51.1174514,46.3393879 53.6232256,45.8244868 56.4045068,44.0374773 L56.6928281,43.9169065 L56.7638891,43.7998306 C59.4677021,41.969136 60.8801853,39.9473921 61.035704,39.7179 C61.480709,39.0643717 61.5348785,38.2081448 61.1801559,37.4847205 L59.5084748,34.0621428 C59.1298711,33.2851315 58.3371332,32.7847921 57.4878959,32.7847921 C57.3498511,32.7847921 57.2106415,32.7981888 57.0469682,32.8302245 Z M48.2185118,41.2503714 C48.6046876,40.7220736 50.1656999,38.6927576 52.2055002,37.3589076 C54.2190896,36.0454439 56.6444833,35.4251162 57.3719849,35.2596955 L58.9335796,38.455111 C58.6184649,38.8826419 57.360918,40.4809321 55.2279229,41.8864256 L55.1650164,41.9271983 C53.0052278,43.3350217 51.0318287,43.846428 50.5163452,43.9629214 L48.2185118,41.2503714 Z" id="path-11"></path>
    </defs>
    <g id="atome-/-icone-/-distance" stroke="none" stroke-width="1" fill="none" fill-rule="evenodd">
        <mask id="mask-2" fill="white">
            <use xlink:href="#path-1"></use>
        </mask>
        <g id="Clip-2" transform="translate(53.789045, 77.222633) rotate(33.000000) translate(-53.789045, -77.222633) "></g>
        <polygon id="Fill-1" fill="#000000" mask="url(#mask-2)" transform="translate(53.537319, 77.059160) rotate(33.000000) translate(-53.537319, -77.059160) " points="32.647422 100.628698 74.4272166 100.628698 74.4272166 53.4896219 32.647422 53.4896219"></polygon>
        <mask id="mask-4" fill="white">
            <use xlink:href="#path-3"></use>
        </mask>
        <g id="Clip-5" transform="translate(53.699145, 69.852769) rotate(33.000000) translate(-53.699145, -69.852769) "></g>
        <polygon id="Fill-4" fill="#000000" mask="url(#mask-4)" transform="translate(53.699324, 69.852886) rotate(33.000000) translate(-53.699324, -69.852886) " points="42.423049 80.3771956 64.9755992 80.3771956 64.9755992 59.328576 42.423049 59.328576"></polygon>
        <mask id="mask-6" fill="white">
            <use xlink:href="#path-5"></use>
        </mask>
        <g id="Clip-8" transform="translate(53.566059, 86.607231) rotate(33.000000) translate(-53.566059, -86.607231) "></g>
        <polygon id="Fill-7" fill="#000000" mask="url(#mask-6)" transform="translate(53.566130, 86.607277) rotate(33.000000) translate(-53.566130, -86.607277) " points="42.8073772 96.3420526 64.3248831 96.3420526 64.3248831 76.8725017 42.8073772 76.8725017"></polygon>
        <mask id="mask-8" fill="white">
            <use xlink:href="#path-7"></use>
        </mask>
        <g id="Clip-2" transform="translate(53.789045, 30.222633) rotate(33.000000) translate(-53.789045, -30.222633) "></g>
        <polygon id="Fill-1" fill="#000000" mask="url(#mask-8)" transform="translate(53.537319, 30.059160) rotate(33.000000) translate(-53.537319, -30.059160) " points="32.647422 53.628698 74.4272166 53.628698 74.4272166 6.48962195 32.647422 6.48962195"></polygon>
        <mask id="mask-10" fill="white">
            <use xlink:href="#path-9"></use>
        </mask>
        <g id="Clip-5" transform="translate(53.699145, 22.852769) rotate(33.000000) translate(-53.699145, -22.852769) "></g>
        <polygon id="Fill-4" fill="#000000" mask="url(#mask-10)" transform="translate(53.699324, 22.852886) rotate(33.000000) translate(-53.699324, -22.852886) " points="42.423049 33.3771956 64.9755992 33.3771956 64.9755992 12.328576 42.423049 12.328576"></polygon>
        <mask id="mask-12" fill="white">
            <use xlink:href="#path-11"></use>
        </mask>
        <g id="Clip-8" transform="translate(53.566059, 39.607231) rotate(33.000000) translate(-53.566059, -39.607231) "></g>
        <polygon id="Fill-7" fill="#000000" mask="url(#mask-12)" transform="translate(53.566130, 39.607277) rotate(33.000000) translate(-53.566130, -39.607277) " points="42.8073772 49.3420526 64.3248831 49.3420526 64.3248831 29.8725017 42.8073772 29.8725017"></polygon>
    </g>
</svg>